<svg version="1" xmlns="http://www.w3.org/2000/svg" width="346.667" height="346.667" viewBox="0 0 260.000000 260.000000"><path d="M24 42.4c-9 2.4-17.2 9.5-21.4 18.5C.5 65.4.5 66.2.5 130.5c0 64.5 0 65 2.2 69.7 3 6.6 9.6 13.3 16.2 16.5l5.6 2.8h211l5.6-2.8c6.6-3.2 13.2-9.9 16.2-16.5 2.2-4.7 2.2-5.2 2.2-69.7v-65l-2.8-5.6c-3.2-6.6-9.9-13.2-16.5-16.2l-4.7-2.2-103.5-.2c-79.7-.1-104.5.1-108 1.1zm39.8 29.9c.6.7 1.2 3.5 1.4 6.2.3 5 .3 5 4.2 5.5 2.7.3 4.5 1.3 5.9 3.1 1.7 2.4 1.8 3.1.7 6.4-.7 2-3.4 6.6-6.1 10.1-2.7 3.6-4.9 6.7-4.9 6.8 0 .2.9.6 2 .9 1.5.4 2.5-.5 4.5-3.9 2.7-4.6 3.5-5 6.6-3.4 2.9 1.6 2.3 4.9-1.5 8.5l-3.5 3.2 3 2.9c4.4 4.2 3.5 9.4-1.7 9.4-1.6 0-3.1-1.5-5.6-5.8l-3.3-5.7-.3 17.4c-.1 10.8-.7 18-1.3 18.8-1.5 1.8-5.4 1.6-7.3-.3-1.3-1.3-1.6-4.3-1.6-17 0-8.5-.2-15.4-.5-15.4-.2 0-2.5 1.4-5 3.2-3.6 2.5-4.9 3-6.2 2.2-.9-.6-1.8-1.5-2-2.1-.2-.6 3.1-4.7 7.5-9.1C56.6 106.3 65 95 65 92.4c0-1.1-2.1-1.4-9.9-1.4-10.4 0-12.6-.9-11.9-4.7.2-1.4 1.6-1.9 5.8-2.3l5.5-.5.3-5c.3-5.4 2-7.5 5.8-7.5 1.2 0 2.6.6 3.2 1.3zm113.6.3c.9.8 1.6 2.4 1.6 3.5 0 1.8.9 1.9 16.4 1.9 17.2 0 19.2.5 18.4 4.7-.3 1.6-1.8 1.9-12.3 2.3l-12 .5-.5 13.1c-.3 8.8-.9 13.6-1.8 14.7-2.2 2.6-7.9 4-13 3.2-6.3-.9-8.2-2.1-8.2-4.9 0-2.8 1.9-3.8 5.8-3 5.1 1 6.2-1.3 6.2-13.2V85h-8v4.2c0 12.3-6.4 22.5-17.5 27.8-6.9 3.3-10.6 3.8-12.5 1.5-1.9-2.3-.6-4.2 4.8-6.9 9.1-4.6 12.2-9.4 13.8-21.3l.6-5.2-13.3-.3c-12-.3-13.4-.5-13.7-2.1-.8-4.2 1.2-4.7 17.9-4.7 15 0 15.9-.1 15.9-1.9 0-3 2.8-5.1 6.5-5.1 1.8 0 4.1.7 4.9 1.6zm-56.7 6.9l2.6 2.9-.6 24.1c-.9 33.8-3.2 42.5-12.3 45.5-7.6 2.6-21.1-3.1-18.5-7.8.8-1.3 2.3-1.7 7.8-1.7 6.4 0 6.8-.1 8.1-2.8 2.3-4.8 3.2-14.3 3.2-35.5V84h-10.7l-.6 13.7c-.6 15.6-2.6 26-6.8 34.8-3.2 6.9-9.8 14.8-15.7 18.9-3.3 2.3-4.4 2.6-6.1 1.6-3.2-1.6-2.6-3.6 3-9.8 9.8-11.1 13.1-21.5 14.4-46l.7-13.2h-5.5c-3.1 0-6.2-.3-7.1-.6-2.5-.9-2-5.3.7-6.4 1.2-.5 10.9-.9 21.5-.7l19.4.2 2.5 3zM152.1 90c3 1.7 2.4 6.1-1.3 9.9-8 8.2-16.7 11.7-19.2 7.8-.9-1.5-.4-2.4 3.5-6 2.6-2.3 6.1-6.1 7.9-8.5 3.2-4.3 5.5-5.1 9.1-3.2zm53.5 5.9c7.8 6.5 10 10.3 8 14.2-.8 1.8-2.1 2.5-4.8 2.7-3.5.3-3.9 0-7.4-5.5-2-3.2-5-7.3-6.5-9.1-2.8-3.1-3.7-6.1-2.2-7.5 2-2 6.3-.3 12.9 5.2zm-27.6 24c6.5 2.9 9 5.1 9 7.8 0 5.6-5.9 8.2-9.6 4.2-1-1.1-4-3.6-6.6-5.6-4.8-3.5-5.8-5.9-3.6-8.1 1.4-1.4 5.4-.8 10.8 1.7zm-16 2.1c1.7 1.7 2 3.3 2 11v8.9l3.6.7c5.6 1 17.4-.2 19.4-2.1 1-.9 2.1-3.4 2.5-5.5.7-4 2.5-5.5 5.6-4.5 2.4.8 3.2 3.8 2.5 8.3-2 11.4-4.1 12.6-22.1 13-21.2.4-23.5-1.3-23.5-18.2 0-7.9.3-10.3 1.7-11.8 2.1-2.4 5.8-2.3 8.3.2zm45.3 3.2c5.3 6.6 7.7 11 7.7 14.4 0 3.9-2.9 6.7-6.6 6.2-2.5-.3-3.2-1.3-6.2-8.3-5.9-14-5.7-13.2-4.3-14.9 2.4-2.8 5.7-1.9 9.4 2.6zm-59.5-.6c1.1 1.9.1 6.9-2.9 14.8-2.9 8-7.8 10.8-12.1 6.9-2.5-2.2-2.3-6 .6-9.7 1.3-1.7 3.5-5.5 5-8.4 2.3-4.5 3-5.2 5.6-5.2 1.6 0 3.3.7 3.8 1.6zM30 178c0 1.9-1.9 12.9-2.5 14.8-.4 1-.9 1-2.7.1-1.3-.7-2.6-1.6-2.9-2.2-.9-1.3-2.9 0-2.9 1.9 0 1.7-.5 1.7-2.9.4-1.7-.9-1.7-1.4-.4-9.2.8-4.5 1.6-8.4 1.8-8.6.2-.2 1.3-.1 2.4.3 1.6.5 1.9 1.2 1.4 4.1-.5 2.8-.3 3.3.9 2.9.9-.4 1.8-2.4 2.2-4.5.6-3.8.7-3.9 3.1-2.8 1.4.6 2.5 1.9 2.5 2.8zm10.8-3.4c2.1.6 2.2 1.1 2.2 9.5 0 8.2-.2 8.9-2 8.9-1.1 0-2-.5-2-1 0-1.7-4.8-1.1-5.9.7-.9 1.7-1.1 1.7-2.7.1-1.5-1.5-1.6-2-.1-5.5 5.6-13.9 5.6-14 10.5-12.7zm17.7.5c1.2 1.9-.5 6-2.9 6.9-1.9.7-2.5 1.8-3 6.4-.8 5.9-1.2 6.4-3.8 4.3-1.4-1-1.5-2-.9-5.5.8-4 .7-4.3-1-3.9-1.4.4-1.9 0-1.9-1.6 0-4.5 1.2-6.6 3.9-7 5.3-.8 9-.7 9.6.4zm12.9.5c.9.8 1.6 2.1 1.6 2.9 0 .7.3 2 .6 2.8.6 1.7-4.7 3.1-5.7 1.6-.3-.6-1.1-.3-1.9.6-1.1 1.3-.8 1.5 1.8 1.5 1.6 0 3.5.7 4.2 1.5 2.6 3.2-8.4 9.8-11.3 6.8-1.1-1 2.3-4.2 3.8-3.7.7.3 1.6.1 2-.5.4-.7-1-1.1-4.1-1.1h-4.7l.6-3.8c.4-2.5 1.8-4.8 4.2-7 3.8-3.5 6.5-4 8.9-1.6zm18.1 4.3c-2.1 12.7-2.6 14.3-4.3 13.5-2-.8-4-.8-6.7 0-4.1 1.3-4.6-.4-3-9.3.8-4.6 1.7-8.6 1.9-8.8.9-.9 4.5 1.8 4.1 3-1.4 4.8-1.5 6.7-.1 6.7 1 0 1.7-1.4 2.1-3.8 1.2-7.1 1.3-7.2 4.1-6 2.2 1 2.5 1.6 1.9 4.7zm30.2-2.9c2.5 5.3 2.5 7.4.1 11-5.1 7.5-11.6 8-13.7 1-.6-2.2-.9-4.5-.6-5 .9-1.4-.7-1.2-2.7.4-2.3 1.7-2.3 2.6.2 2.6 2.1 0 2.6 1.6 1.1 3.8-.6 1-1.9 1.1-4.5.7-2.9-.6-4-.4-4.9.9-1 1.4-1.5 1.5-3 .4-1.6-1.2-1.7-2-.6-8.5.6-3.9 1.5-7.6 1.9-8.2.9-1.5 4-.3 4 1.5 0 1.9.7 1.8 4-.6l2.8-2 1.1 3.2 1.2 3.3 2.2-2.7c4.5-5.3 9.3-6.1 11.4-1.8zm22.1-2.2c1.1.7 3.6 7.3 2.9 7.7-1.1.9-5.7 1.3-5.7.6 0-.6-.7-.8-1.5-.5-2.5 1-1.7 2.4 1.4 2.4 1.6 0 3.4.7 4.1 1.5 2.6 3.2-8.4 9.8-11.3 6.8-1.1-1 2.3-4.2 3.8-3.7.7.3 1.6.1 2-.5.4-.7-1-1.1-4.1-1.1h-4.7l.6-3.8c.4-2.5 1.8-4.8 4.2-7 3.5-3.2 5.9-3.9 8.3-2.4zm18.7 5.1c-2.1 12.7-2.6 14.3-4.3 13.5-2.2-.9-4.2-.9-6.7-.1-4.1 1.3-4.6-.3-3-9.2.8-4.6 1.7-8.6 1.9-8.8.2-.3 1.3 0 2.4.6 1.7.9 1.9 1.6 1.2 4.8-.5 2.1-.7 4-.4 4.3.9.9 3.4-3.2 3.4-5.6 0-4.4.9-5.4 3.7-4.1 2.1.9 2.4 1.5 1.8 4.6zm15.5-4c1.4 2.7 1.3 3.7-.7 5.7-1.3 1.3-1.4 1.9-.5 2.2.6.2 1.2 1.7 1.2 3.3 0 2.3-.7 3.2-4.1 4.9-2.3 1.2-5.4 2-7.2 1.8l-3.2-.3.1-6.8c.3-9.6.9-11.5 4.2-12 6.6-1 9.1-.7 10.2 1.2zm14.6-1.1c1 .7 3.7 7.3 3.2 7.7-1.2.9-5.8 1.3-5.8.6 0-.6-.7-.8-1.5-.5-2.5 1-1.7 2.4 1.4 2.4 3.4 0 4.5 1.2 3.6 4-1.1 3.6-9.4 6.5-11 3.9-.8-1.3 2.5-3.9 4.1-3.2.7.2 1.5 0 1.9-.6.4-.7-1-1.1-3.9-1.1-4.5 0-4.6-.1-4.6-3.1 0-2.3 1-4.2 3.9-7 3.7-3.7 6.4-4.7 8.7-3.1zm41.5 1.9c.1 2.2.3 2.3.6.7.4-2.2 4.1-3.4 10.6-3.4 2.6 0 2.8.3 2.5 3.1-.2 1.9-1.1 3.6-2.3 4.3-2.8 1.6-3.2 2.3-3.9 7.7-.4 2.7-.9 4.9-1.2 4.9-1.6 0-4.3-2.2-3.9-3.3.2-.6.6-2.7.9-4.6.5-3 .4-3.3-1.4-2.8-1.3.3-2 0-2-.8 0-1-1-1.2-3.7-.8-4.4.7-5.6 1.3-2.5 1.3 1.5 0 2.2.6 2.2 2 0 1.5-.7 2-2.5 2-1.4 0-2.5.5-2.5 1.1 0 .8 1.2 1 3.4.6 2.9-.5 3.5-.2 4 1.6.7 2.7.5 2.8-4.8 3.4-6.1.7-7.5-.8-7.5-8.3.1-8.4 1.1-10.2 5.6-10.7 8.4-.8 8.3-.9 8.4 2zm-104.4-.9c1 .6 1 2.6-.2 9.1-.8 4.6-1.6 8.6-1.8 8.8-.2.2-1.2.1-2.1-.3-1.9-.7-2-2.3-.5-11.5 1.2-6.7 2-7.8 4.6-6.1zm80 2.2c3.1 3.7 4.1 3.8 4.5.3.3-2.9 1.6-3.7 3.7-2.4 1.1.7 1.2 2 .1 7.7-2 11.4-1.7 11.1-5.4 7.5-3.4-3.3-4.6-3.2-4.6.6 0 2.6-.9 2.9-3.3 1-1.3-1-1.4-2-.7-6.2.5-2.8 1.2-6.5 1.5-8.3.3-1.7.8-3.2 1.1-3.2.3 0 1.7 1.3 3.1 3zm-8.9 11.8c1.7 1.1.4 4.5-1.5 3.8-.8-.3-1.7-.6-1.9-.6-.2 0-.4-.9-.4-2 0-2.1 1.6-2.6 3.8-1.2z"/><path d="M37.1 183.6c0 1.1.3 1.4.6.6.3-.7.2-1.6-.1-1.9-.3-.4-.6.2-.5 1.3zM112.2 185.2c-1.7 1.7-1.5 3.8.3 3.8 1.2 0 3.5-2.8 3.5-4.4 0-1.1-2.6-.6-3.8.6zM166 189c0 1.2.8 1.2 3.5 0 1.8-.8 1.7-.9-.7-.9-1.6-.1-2.8.3-2.8.9z"/></svg>