<?xml version="1.0" encoding="utf-8"?>
<!-- Generator: Adobe Illustrator 21.0.0, SVG Export Plug-In . SVG Version: 6.00 Build 0)  -->
<svg version="1.1" xmlns="http://www.w3.org/2000/svg" xmlns:xlink="http://www.w3.org/1999/xlink" x="0px" y="0px"
	 viewBox="0 0 1492 330" style="enable-background:new 0 0 1492 330;" xml:space="preserve">
<style type="text/css">
	.st0{enable-background:new    ;}
	.st1{fill-rule:evenodd;clip-rule:evenodd;fill:#FFFFFF;}
	.st2{fill-rule:evenodd;clip-rule:evenodd;fill:#52656B;}
	.st3{fill-rule:evenodd;clip-rule:evenodd;fill:#F38492;}
	.st4{fill:none;stroke:#FFFFFF;stroke-width:3;stroke-miterlimit:10;}
</style>
<g id="Hatsukoi_1_" class="st0">
	<g id="Hatsukoi">
		<g>
			<path class="st1" d="M391.2,138.4v-29.4c0-45.2,0.5-72.1,1.5-80.8c0.4-3.4,0.6-7.4,0.6-11.8c0-4-5-6.1-14.9-6.1l-5.2,0.9
				c-11.3,2.6-19.8,4.8-25.5,6.4c-1.6,0.4-4.1,0.9-7.4,1.4c-3.3,0.5-5.8,1-7.3,1.5c-1.5,0.5-2.3,1.4-2.3,2.6c0,1,1,1.7,3,2.1
				c2,0.4,3.1,0.7,3.3,0.9c3.4,2,5.1,6.3,5.1,12.7c0,4.8,0.2,11.9,0.6,21.2c0.4,9.3,0.6,16.3,0.6,20.9v14.2
				c-22.9-0.4-41.3,0.3-55.2,2.1c0-9.1,0.3-22.6,0.9-40.6c0.6-18,0.9-31.4,0.9-40.3c0-4-5.1-6.1-15.2-6.1l-5.2,0.9
				c-11.1,2.8-19.4,5.1-24.9,6.7c-6.5,1.2-11.4,2-14.9,2.4c-1.4,0.6-2.1,1.5-2.1,2.7c-0.2,1,0.7,1.7,2.6,2.1c1.9,0.4,3,0.7,3.2,0.9
				c3.2,2.2,4.9,6.7,4.9,13.3c0,8.9,0.3,22.3,0.8,40.2c0.5,17.9,0.8,31.4,0.8,40.5c0,24.5-0.3,43.3-0.9,56.7s-0.9,21-0.9,23
				c0,8.3,0.7,13.2,2,14.7c1.3,1.5,5.8,2.3,13.5,2.3c3.2,0,9.6-1.2,19.1-3.6c8.5-2.2,14.8-4.1,18.8-5.8c1-0.2,1.5-1,1.5-2.4
				l-3.3-3.3c-0.7-17.8-1.1-35-1.3-51.5l-0.3-23c1.6,0,4-0.1,7.3-0.3c3.2,0,5.7,0,7.3,0c10.9,0,24.5,0.5,40.7,1.5
				c0,7.9-0.4,19.7-1.1,35.6c-0.7,15.9-1.1,27.9-1.1,35.9c0,7.9,0.4,12.5,1.2,13.9c1.6,2,6.3,3,14,3c8.3-0.2,21.2-3.3,38.5-9.4
				c1.2-0.6,1.8-1.5,1.8-2.7l-3.8-3.3C391.9,200.2,391.2,179.2,391.2,138.4z M549.9,204.1c-3.1-1.2-4.7-2.5-4.7-3.9
				c0-2.6-0.1-6.5-0.3-11.5c-0.2-5-0.3-8.8-0.3-11.2c0-47.9,0.7-83.7,2.1-107.3l-0.9-1.8l-4.2,1.5c-5.5-3.6-12.6-5.9-21.5-6.7
				c-2.4-0.2-10.1-0.2-23,0c-11.1,0.2-23.3,3.1-36.6,8.8c-6.3,2.4-11,4.1-14.2,5.1c-7.1,3.2-11.3,5.5-12.7,7
				c-1.4,1.4-3.5,5.7-6.4,13c-4.4,11.7-6.7,26.6-6.7,44.8c0,13.5,1.4,27,4.2,40.5c4.2,19.6,10.5,30.8,18.8,33.6
				c2.8,1,6.3,1.5,10.3,1.5c10.3,0.2,19.3-2.3,27-7.5c7.3-6,14.6-12,21.9-18c-1.2,10.3-1.8,15.8-1.8,16.4c0,6.1,5.5,9.1,16.4,9.1
				c3.2,0,9.1-1.1,17.6-3.2s14.4-4,17.6-5.6c1.4,0,2.1-0.4,2.1-1.2C554.6,206.4,553,205.3,549.9,204.1z M503.9,124.3
				c-0.2,11.5-1.8,27.1-4.9,46.9c-0.8,4.4-3.3,9.8-7.6,16c-4.9,6.9-9.3,10.3-13.4,10.3c-4.5,0-8.3-4.6-11.5-13.9
				c-2.4-6.9-3.9-13.4-4.6-19.7c-0.2-2.2-0.3-8.5-0.3-18.7c0-15.1,5-35.3,14.9-60.5c1.8-3.6,3.7-5.4,5.8-5.4
				c9.7,0,16.1,5.6,19.1,16.9C503.3,102,504.1,111.4,503.9,124.3z M628.9,136.8c0-2.2,0-5.4,0-9.5c0-4.1,0-7.2,0-9.2V91.6h14.6
				c4.7,0,7.5-0.3,8.5-0.9c2.2-1,3.3-3.4,3.3-7.3c-0.2-6.5-2.2-9.7-5.9-9.7c-12.3,0-19-0.1-20.2-0.3c-0.2,1.8-0.3-6-0.3-23.3
				c0-1.2,0.2-3.1,0.5-5.6c0.3-2.5,0.5-4.5,0.5-5.9c-0.2-3.6-4.4-5.4-12.4-5.2c-8.5,0.2-13.5,2.1-14.9,5.8
				c-3.6,9.1-5.9,14.5-6.7,16.4c-1.2,3.4-2.4,6.9-3.6,10.3c-2,5.5-3.5,8.2-4.6,8.2c-2.2,0-5-0.2-8.3-0.6c-3.3-0.4-5.6-0.6-6.8-0.6
				c-5.7,0-8.5,5.3-8.5,15.8c0,2,1.4,3,4.3,3h19.1c0.2,14.4,0.2,25.3,0,32.7c0.4,23,0.8,40.3,1.2,51.8c0.2,16.6,0.8,26.2,1.8,28.8
				c2.6,7.7,10.3,11.6,23.1,11.8c2.6,0,15-4,37-12.1c2.6-1,3.9-1.8,3.9-2.4c0-1.4-0.4-3.4-1.1-6.1c-0.7-2.6-1.1-4.6-1.1-6.1
				c0-0.6,0.1-1.7,0.3-3.3c0-1.6,0-2.8,0-3.6c-4.7,3.4-8.9,5.2-12.7,5.2c-8.9,0-13.3-7.8-13.1-23.3c0-3.2,0.4-7.9,1.1-14.1
				C628.6,144.7,628.9,140,628.9,136.8z M760.7,138.5c-10.5-6.3-20.9-12.5-31.3-18.8c-11.3-7.3-17-15.4-17-24.5
				c0-5.2,2.4-9.7,7.1-13.3c0-0.6,1-0.9,3-0.9c1.8,0,4.5,3,8.3,8.9c3.7,6,5.6,10.1,5.6,12.3c-0.5,1.2-1.4,3-2.7,5.5
				c1.2,0.4,2.2,0.6,3,0.6c4.9,0,12.2-1.6,22.2-4.8c11.3-3.6,17-7.2,17-10.6c0-19.6-10.4-29.4-31.1-29.4c-2.2,0-5.7,0.4-10.3,1.2
				c-4.7,0.8-8.2,1.2-10.7,1.2c-1.6,0-3.8-0.2-6.4-0.5c-2.6-0.3-4.6-0.5-5.8-0.5c-4.1-0.2-8.8,0.5-14.3,2.1
				c-6.3,1.6-10.5,3.5-12.6,5.6c-2.1,2.1-3.8,4-5,5.6c-6.7,6.9-10,16.4-10,28.7c0,11.1,5.8,21.5,17.4,31.2c2.2,1.8,12.9,8.8,32,20.9
				c11.6,7.3,17.4,13.7,17.4,19.4c0,4.6-2.4,8.7-7.3,12.1c-4.9,3.4-9.7,5-14.6,4.8c-3.2,0-7.4-1.2-12.4-3.6
				c-5.7-2.6-8.5-5.1-8.5-7.5c0-3.8-0.1-5.9-0.3-6.3l-1.2-1.2c-2,0.4-7.2,3.7-15.5,9.9c-8.9,6.8-13.4,11.3-13.4,13.5
				c0,1.2,2.2,3.3,6.7,6.3c10.3,6.8,25,10.2,44,10.2c16.4,0,30.6-4,42.5-12.1c14-9.1,20.9-21.4,20.9-36.9
				C777.4,156.5,771.8,146.8,760.7,138.5z M929.1,204.4c-5.1-2.4-7.6-10.6-7.6-24.6c0-1.6,0.2-4.1,0.5-7.6c0.4-3.4,0.5-6.1,0.5-7.9
				c0-10.9,0.1-26,0.4-45.2c0.5-21.2,0.7-36.2,0.7-44.9c0-7.7-5.3-11.5-15.9-11.5c-3.9,0-10.9,1.9-21.1,5.6
				c-10.2,3.8-16.1,7-17.7,9.6c1.4,1.2,2.8,2.5,4.2,4c3,2.6,5,6.2,5.8,10.7c1.4,8.1,2,18.4,1.8,30.8c-0.4,24.2-0.9,38.6-1.5,43.3
				c-7.9,14-15.3,21-22.2,21c-3.4,0-6.3-5.1-8.5-15.2c-1.8-7.5-2.7-14-2.7-19.5c0-2.4,0.2-6,0.6-10.7c0.4-4.7,0.6-8.1,0.6-10.4
				c0-16,0.2-28.5,0.6-37.5c0-1.4,0.2-5.2,0.6-11.3c0.4-4.5,0.6-8.1,0.6-11c0-5.7-1.8-8.5-5.5-8.5c-2.8,0-6.6,0.7-11.2,2.1
				c-5.9,1.6-9.7,2.5-11.5,2.7c-10.5,1.4-18.4,2.4-23.7,3c-3,1-4.6,2.2-4.6,3.6c0,1.8,0.7,3,2.1,3.6c1.4,0.6,2.8,1.1,4.2,1.5
				c2,1,3.3,3,3.9,6.1c0.4,1.4,0.6,3.8,0.6,7.3c0.4,17,0.6,25.7,0.6,26.1c0,3.2-0.3,11-0.9,23.4c-0.4,9.5-0.4,17.2,0,23.1
				c0,3.8,0.2,7,0.6,9.4c2.6,12.6,5.2,21.5,7.9,26.7c4.8,9.5,12,14.3,21.5,14.3c10.7,0,20.2-4.1,28.4-12.2
				c4.4-4.3,10.9-12.8,19.4-25.7c0,3.2-0.3,8.3-0.8,15.2c-0.5,6.9-0.8,12.1-0.8,15.8c0.2,5.9,2.8,8.8,7.9,8.8
				c4.9,0,12.7-1.2,23.7-3.6c11.7-2.8,19.1-5.4,22.2-7.6C931.7,205.6,930.4,204.6,929.1,204.4z M1078.8,198
				c-3.8-1.4-6.7-3.9-8.7-7.6c-1.9-3.6-3.8-7.3-5.6-10.9c-5.1-8.7-10.1-17.4-15.2-26.1c-7.9-14.1-11.8-22.4-11.8-24.9
				c0-1.6,4.4-9,13.2-22.1c8.8-13.1,14.3-20.8,16.5-23c5.3-5.3,7.9-9.3,7.9-12.1c0-3.8-3.8-5.8-11.5-5.8c1.8,0-7.4,1-27.6,3
				c-0.8-0.2-2.1-0.2-3.9,0c-2.2,0-3.3,0.3-3.3,0.9c0,0.6,0.7,1.6,2.1,3c1.4,1.4,2.1,2.6,2.1,3.6c0.2,0.8-4.4,8.9-13.8,24.2
				c-10.6,17.2-16.2,26.4-16.8,27.6v-2.1c0-3.6,0.2-8.9,0.5-15.8c0.3-6.9,0.5-12,0.5-15.5c0-2.8-0.2-7.1-0.5-12.7
				c-0.3-5.7-0.5-9.9-0.5-12.7V40.1c0-3.2,0.2-8.1,0.5-14.5c0.3-6.5,0.5-11.2,0.5-14.2c0-8.1-5.7-12.1-17.2-12.1
				c-3.8,0-10.6,2-20.4,6.1c-9.8,4-15.2,7.2-16.4,9.4c0-0.2,1.6,1.2,4.9,4.2c3.2,3,4.9,6.8,4.9,11.2c0,13.5,0.3,33.8,0.8,60.9
				c0.5,27.1,0.8,47.4,0.8,60.9c0,6.3-0.2,15.7-0.6,28.2c-0.4,12.5-0.6,21.9-0.6,28.2c0,6.1,5.6,9.1,16.7,9.1
				c3.2,0,9.1-1.1,17.5-3.2c8.4-2.1,14.3-4,17.8-5.6c1.4-0.2,2.1-0.6,2.1-1.2c-1.4-1.8-2.8-2.9-4.2-3.3c-5.3-1.8-7.9-9.9-7.9-24.2
				c0-3,0.2-7.8,0.5-14.2c0.3-6.5,0.5-11.3,0.5-14.5c6.3,12.3,11,21.6,14.3,27.9c5.9,12.3,10.2,21.8,13.1,28.3
				c2.8,6.6,6.4,9.9,10.6,9.9c0.6,0,1.5,0.1,2.7,0.3c1.2,0,2.1,0,2.7,0c0.8,0,6.7-1.9,17.6-5.8c12.5-4.4,19.1-6.8,19.7-7
				c2.8,0,4.2-0.7,4.2-2.1C1087,201,1084.3,199.5,1078.8,198z M1197.9,68.6c-7.3-1-12.8-1.6-16.7-1.8c-1.4-0.2-5.7-1-12.7-2.4
				c-5-1-9.3-1.5-12.7-1.5c-1,0-2.6,0-4.8,0c-2.2,0.2-3.9,0.3-5.1,0.3c-7.3,2.8-16.2,11-26.7,24.6c-13.5,17.4-20.3,38.3-20.3,62.7
				c0,22.2,4.1,38.5,12.4,48.8c9.3,11.7,24.8,17.6,46.6,17.6c20,0,36.4-6,49.4-17.9c9.1-8.5,15.2-18.5,18.5-30
				c2.4-8.3,3.6-20.1,3.6-35.5c0.2-17.2-1.3-30.3-4.5-39.4C1220.2,80.1,1211.2,71.6,1197.9,68.6z M1185,171.4
				c-3.4,14.3-8.6,21.5-15.5,21.5c-10.3,0-17.9-6.3-22.8-19c-3.6-9.1-5.4-19.6-5.2-31.7c0-7.3,1.5-15.8,4.6-25.7
				c3.8-12.3,6.2-20.7,7-25.1c1.2-7.1,3.7-10.6,7.6-10.6c18.4,0.2,27.6,20,27.6,59.3C1188.4,151.1,1187.3,161.5,1185,171.4z
				 M1264.5,36.2c1.4,0.4,5.1,0.6,11.2,0.6c8,0,14.1-1.5,18.1-4.5c2.8-4.2,4.6-7.6,5.4-10c1.8-4.6,2.7-7.7,2.7-9.1
				c0-1.4-2.3-4-6.9-7.7c-4.6-3.7-7.7-5.6-9.3-5.6h-3.6c-11.5,0-20,4.7-25.6,13.9c-0.6,1-0.9,1.9-0.9,2.7c0,2.8,1,6.6,3,11.2
				C1260.5,32.3,1262.5,35.2,1264.5,36.2z M1310.1,207.4c0-1-1.3-2.1-3.9-3.3c-5.3-1.8-7.9-9.9-7.9-24.2c0-1.8,0.2-4.4,0.5-7.9
				c0.3-3.4,0.5-6,0.5-7.6c0-6.7,0.1-16.6,0.3-29.7c0-13.1,0-22.9,0-29.4c0-3.4,0.2-8.5,0.6-15.3c0.4-6.8,0.6-11.8,0.6-15
				c0-8.5-5.4-12.6-16.1-12.4c-4.2,0-11.3,2-21.2,5.9c-9.9,3.9-15.6,7.1-17,9.5c5.9,5.1,9.1,9.9,9.7,14.5c1,8.5,1.5,28,1.5,58.5
				c0,5.9-0.3,15.2-0.8,28c-0.5,12.8-0.8,22.6-0.8,29.3c0,6.1,5.7,9.1,17,9.1c3.2,0,9.1-1.1,17.5-3.2c8.4-2.1,14.3-4,17.8-5.6
				C1309.7,208.4,1310.3,208,1310.1,207.4z"/>
		</g>
	</g>
</g>
<g id="Fansub_yang_membuatmu_jatuh_cinta_1_" class="st0">
	<g id="Fansub_yang_membuatmu_jatuh_cinta">
		<g>
			<path class="st2" d="M38.2,245.3c-1.8,0-4.3,0.1-7.5,0.3c-3.4,0.2-5.9,0.4-7.5,0.4h-5.4c-5.6,0-11.4,0.8-17.3,2.3
				c-0.4,0.1-0.6,0.4-0.6,0.8c-0.1,0.3,0.2,0.5,0.7,0.6l1.1,0.3c1,0.7,1.5,2.1,1.5,4.2c0,1.4,0,3.5,0.1,6.3c0.1,2.8,0.1,4.9,0.1,6.3
				c0,1.4-0.1,3.5-0.3,6.2c-0.2,2.8-0.3,4.8-0.3,6.1c0,1.5,0.1,3.7,0.3,6.6c0.2,2.9,0.3,5.2,0.3,6.7c0,1.3-0.1,3.4-0.3,6.1
				c-0.2,2.7-0.3,4.8-0.3,6.2c0,2.5,0.2,4,0.6,4.5c0.4,0.5,1.8,0.7,4.3,0.7c2.9,0,6.9-0.9,12-2.8c0.3-0.2,0.5-0.5,0.5-1l-1.1-1
				c-0.3-5.6-0.4-11-0.5-16.2v-7.4c0.4,0,1.5,0,3.4,0.1c1.9,0.1,3.5,0.1,4.8,0.1c8.7,0,13.1-1.7,13.1-5.2c0-3-0.6-4.6-1.7-4.6
				c-0.6,0-1.6,0.1-2.9,0.2c-1.3,0.1-2.3,0.2-3,0.2c-1.5,0-3.8-0.1-6.8-0.3c-3-0.2-5.3-0.3-6.7-0.3c-0.1-7.2,0-12.6,0.3-16.2h5.7
				c2.3,0.1,4.2,0.1,5.7,0c2-0.1,3.9-0.3,5.5-0.8c0.9-0.1,1.9-0.2,2.8-0.3c1.3-0.2,1.9-0.7,1.9-1.5c0.1-1.4-0.1-2.9-0.4-4.3
				C39.7,246.3,39,245.3,38.2,245.3z M82,305.7c-1-0.4-1.5-0.8-1.5-1.2c0-0.8,0-2-0.1-3.6c-0.1-1.6-0.1-2.8-0.1-3.5
				c0-15,0.2-26.2,0.7-33.6l-0.3-0.6l-1.3,0.5c-1.7-1.1-3.9-1.8-6.7-2.1c-0.8-0.1-3.2-0.1-7.2,0c-3.5,0.1-7.3,1-11.4,2.7
				c-2,0.8-3.4,1.3-4.4,1.6c-2.2,1-3.5,1.7-4,2.2c-0.4,0.4-1.1,1.8-2,4.1c-1.4,3.7-2.1,8.3-2.1,14c0,4.2,0.4,8.5,1.3,12.7
				c1.3,6.1,3.3,9.6,5.9,10.5c0.9,0.3,2,0.5,3.2,0.5c3.2,0.1,6-0.7,8.4-2.3c2.3-1.9,4.5-3.8,6.8-5.6c-0.4,3.2-0.6,4.9-0.6,5.1
				c0,1.9,1.7,2.8,5.1,2.8c1,0,2.8-0.3,5.5-1s4.5-1.2,5.5-1.8c0.4,0,0.7-0.1,0.7-0.4C83.5,306.4,83,306.1,82,305.7z M67.7,280.7
				c-0.1,3.6-0.6,8.5-1.5,14.7c-0.3,1.4-1,3.1-2.4,5c-1.5,2.1-2.9,3.2-4.2,3.2c-1.4,0-2.6-1.5-3.6-4.4c-0.8-2.1-1.2-4.2-1.4-6.2
				c-0.1-0.7-0.1-2.7-0.1-5.9c0-4.7,1.5-11.1,4.6-19c0.6-1.1,1.2-1.7,1.8-1.7c3,0,5,1.8,6,5.3C67.5,273.7,67.8,276.6,67.7,280.7z
				 M130.6,305.7c-1.6-0.6-2.4-3.1-2.4-7.4c0-0.5,0.1-1.3,0.2-2.5c0.1-1.1,0.2-2,0.2-2.6c0-1.1-0.1-3.2-0.2-6.1
				c-0.1-2.5-0.2-4.6-0.2-6.1c0-1.2,0.1-2.9,0.2-5.2c0.1-2.2,0.2-3.9,0.2-4.9c0.1-3.4-0.5-5.8-1.8-7.1c-1.2-1.3-3.6-2-7-2
				c-2,0-3.8,0.7-5.6,2.2c-0.1,0.1-1.5,1.5-4.3,4.4c-1.8,2.2-3.2,3.9-4,5c0-1,0-2.4,0.1-4.2c0.1-1.9,0.1-3.2,0.1-4.1
				c0-2.6-1.7-3.9-5-3.8c-1.3,0-3.5,0.6-6.6,1.9c-3.1,1.2-4.8,2.2-5.3,3c1.8,1.6,2.8,3.1,3,4.6c0.3,2.6,0.5,8.7,0.5,18.3
				c0,1.8-0.1,4.8-0.2,8.8c-0.2,4-0.2,7.1-0.2,9.2c0,1.9,1.8,2.8,5.3,2.8c0.9,0,2.7-0.3,5.4-1c2.5-0.6,4.3-1.1,5.4-1.6
				c0.6-0.3,0.9-0.4,0.9-0.6c-0.4-0.5-0.9-0.8-1.3-1c-1.6-0.6-2.5-3.1-2.5-7.6c0-0.6,0-1.4,0.1-2.5c0.1-1.1,0.1-1.9,0.1-2.4
				c0-1.5,0-3.7,0.1-6.6V280c1.1-1.8,2.2-3.8,3.4-5.7c1.2-2,2.4-3.6,3.7-4.9c0.8,0.1,1.4,1.2,2,3.4c0.4,1.8,0.7,3.2,0.7,4.4
				c0,3.4-0.1,8.3-0.2,15c-0.2,6.6-0.2,11.6-0.2,14.9c0,1.9,1.7,2.8,5.1,2.8c1,0,2.8-0.3,5.5-1c2.4-0.6,4.2-1.1,5.4-1.6
				c0.3-0.2,0.6-0.3,0.8-0.5C131.9,306.4,131.5,306.1,130.6,305.7z M166.9,285.1c-3.3-2-6.5-3.9-9.8-5.9c-3.5-2.3-5.3-4.8-5.3-7.7
				c0-1.6,0.7-3,2.2-4.2c0-0.2,0.3-0.3,0.9-0.3c0.6,0,1.4,0.9,2.6,2.8c1.2,1.9,1.8,3.2,1.8,3.8c-0.2,0.4-0.4,1-0.9,1.7
				c0.4,0.1,0.7,0.2,0.9,0.2c1.5,0,3.8-0.5,6.9-1.5c3.5-1.1,5.3-2.2,5.3-3.3c0-6.1-3.2-9.2-9.7-9.2c-0.7,0-1.8,0.1-3.2,0.4
				c-1.5,0.3-2.6,0.4-3.3,0.4c-0.5,0-1.2,0-2-0.1c-0.8-0.1-1.4-0.1-1.8-0.1c-1.3-0.1-2.8,0.2-4.5,0.7c-2,0.5-3.3,1.1-3.9,1.8
				c-0.7,0.7-1.2,1.2-1.6,1.8c-2.1,2.1-3.1,5.2-3.1,9c0,3.5,1.8,6.7,5.4,9.8c0.7,0.6,4,2.7,10,6.5c3.6,2.3,5.4,4.3,5.4,6.1
				c0,1.5-0.8,2.7-2.3,3.8c-1.5,1.1-3,1.6-4.5,1.5c-1,0-2.3-0.4-3.9-1.1c-1.8-0.8-2.7-1.6-2.7-2.3c0-1.2,0-1.8-0.1-2l-0.4-0.4
				c-0.6,0.1-2.2,1.2-4.8,3.1c-2.8,2.1-4.2,3.6-4.2,4.2c0,0.4,0.7,1,2.1,2c3.2,2.1,7.8,3.2,13.7,3.2c5.1,0,9.5-1.3,13.3-3.8
				c4.4-2.8,6.5-6.7,6.5-11.6C172.1,290.8,170.4,287.7,166.9,285.1z M219.5,305.8c-1.6-0.8-2.4-3.3-2.4-7.7c0-0.5,0.1-1.3,0.2-2.4
				c0.1-1.1,0.2-1.9,0.2-2.5c0-3.4,0-8.1,0.1-14.2c0.1-6.7,0.2-11.3,0.2-14.1c0-2.4-1.7-3.6-5-3.6c-1.2,0-3.4,0.6-6.6,1.8
				c-3.2,1.2-5,2.2-5.5,3c0.4,0.4,0.9,0.8,1.3,1.2c0.9,0.8,1.5,1.9,1.8,3.3c0.4,2.5,0.6,5.8,0.6,9.6c-0.1,7.6-0.3,12.1-0.5,13.6
				c-2.5,4.4-4.8,6.6-6.9,6.6c-1.1,0-2-1.6-2.7-4.8c-0.6-2.4-0.9-4.4-0.9-6.1c0-0.8,0.1-1.9,0.2-3.3c0.1-1.5,0.2-2.5,0.2-3.2
				c0-5,0.1-8.9,0.2-11.7c0-0.4,0.1-1.6,0.2-3.5c0.1-1.4,0.2-2.5,0.2-3.4c0-1.8-0.6-2.7-1.7-2.7c-0.9,0-2.1,0.2-3.5,0.7
				c-1.8,0.5-3,0.8-3.6,0.9c-3.3,0.4-5.7,0.8-7.4,1c-0.9,0.3-1.4,0.7-1.4,1.1c0,0.6,0.2,1,0.7,1.1c0.4,0.2,0.9,0.3,1.3,0.5
				c0.6,0.3,1,1,1.2,1.9c0.1,0.4,0.2,1.2,0.2,2.3c0.1,5.3,0.2,8.1,0.2,8.2c0,1-0.1,3.5-0.3,7.3c-0.1,3-0.1,5.4,0,7.2
				c0,1.2,0.1,2.2,0.2,3c0.8,3.9,1.6,6.7,2.5,8.4c1.5,3,3.7,4.5,6.7,4.5c3.3,0,6.3-1.3,8.9-3.8c1.4-1.3,3.4-4,6-8
				c0,1-0.1,2.6-0.2,4.8c-0.2,2.2-0.2,3.8-0.2,4.9c0.1,1.8,0.9,2.8,2.5,2.8c1.5,0,4-0.4,7.4-1.1c3.7-0.9,6-1.7,6.9-2.4
				C220.3,306.2,219.9,305.8,219.5,305.8z M266,268.6c-2.7-4.3-6.2-6.5-10.7-6.5c-3.1,0-5.9,1.2-8.4,3.7c-2.3,2.2-3.9,4.9-4.7,8.1
				v-19.9c0-1,0.1-2.5,0.2-4.5c0.1-2,0.2-3.5,0.2-4.4c0-2.6-1.8-3.9-5.3-3.8c-1.3,0-3.4,0.6-6.5,1.9c-3.1,1.3-4.8,2.3-5.2,2.9
				c0.5,0.4,1,0.9,1.6,1.3c1,1,1.5,2.1,1.5,3.4c0,4.3,0.1,10.7,0.2,19.3c0.2,8.5,0.2,14.9,0.2,19.2c0,2-0.1,4.9-0.2,8.8
				c-0.1,3.9-0.2,6.9-0.2,8.8c0,1.9,1.7,2.9,5.2,2.9c0.8,0,2.1-0.1,3.8-0.4c2-0.4,3.1-0.8,3.1-1.2c2.8,1.1,5.3,1.6,7.3,1.6
				c6.8,0,11.9-2.9,15.4-8.5c3-4.8,4.5-10.8,4.5-18c0-2-0.2-4.6-0.5-7.6C267.1,272,266.6,269.6,266,268.6z M249.6,303.2
				c-0.1,0-0.2,0-0.5,0.1h-0.4c-2.7-0.1-4.9-1.5-6.6-4.2c-0.1-1.5,0-3.8,0.3-6.8c0.3-3,0.4-5.2,0.4-6.5V277c2.7-5,5.1-7.5,7.3-7.5
				c1,0,1.8,0.7,2.3,2.2c0.7,0.8,1.3,2.6,1.8,5.3c0.3,2.2,0.5,4.1,0.5,5.7C254.5,293.5,252.8,300.4,249.6,303.2z M330.3,261.4
				c-0.9,0-2.1,0.2-3.6,0.6c-2.1,0.4-3.3,0.7-3.7,0.8c-1.3,0.2-1.9,0.7-1.9,1.4c0,0.2,0,0.3,0.1,0.4c0,0.4,0.2,0.9,0.5,1.5
				c0.3,0.6,0.5,1.1,0.5,1.5c0,1.7-0.9,6.7-2.7,15c-1.8,8.5-3.1,13.3-3.9,14.5c-0.6,0.8-1,1.3-1,1.3c-1.3-5.9-2.1-11.2-2.6-16
				c0-0.2-0.1-0.5-0.2-1c-0.1-0.4-0.2-0.8-0.2-1c0-1.6-0.2-4.1-0.6-7.2c-0.4-3.2-0.6-5.5-0.6-7.1c0-1.6-0.1-2.6-0.3-3.1
				c-0.4-0.9-1.2-1.3-2.6-1.3c-1.8,0-4.3,0.3-7.3,1c-3.2,0.8-5.5,1.6-6.7,2.4l0.3,0.7c0.7,0,1.2,0,1.4,0.1c0.6,0.3,1.5,4.6,2.7,12.9
				c0.7,5,1.4,10,2.1,15.1c0.3,2.3,0.5,4.7,0.9,7c0.4,2.6,1.5,4.6,3.1,6.1c2,1.8,3.8,2.7,5.3,2.7c1.1,0,3.1-1.5,6.1-4.5l0.1,0.9
				c0,2-0.7,5.5-2.2,10.5c-1.5,4.9-3.6,7.6-6.3,7.9l-0.8,0.1c-1.5,0.2-2.9-0.1-4.1-1c-0.8-0.6-1.5-1.4-2.3-2.6c-0.6-1-1-1.4-1.2-1.4
				c-0.1-0.1-1.1,0.5-3,1.8c-2.2,1.5-3.3,2.2-3.4,2.3c-1.5,0.8-2.2,1.8-2.2,2.9c0,1,1.8,1.9,5.4,2.6c2.8,0.6,5,0.9,6.7,0.9
				c3.1-0.1,6.3-0.8,9.8-2.2c3.7-1.6,6.4-3.5,8-5.8c2.5-3.7,4.6-9.6,6.2-17.6c1-6.4,2-12.8,3-19.1c1.7-9.9,2.9-16.1,3.6-18.4
				c0.7-2.3,1.1-3.6,1.1-3.9C333.8,262,332.6,261.4,330.3,261.4z M378.6,305.7c-1-0.4-1.5-0.8-1.5-1.2c0-0.8,0-2-0.1-3.6
				c-0.1-1.6-0.1-2.8-0.1-3.5c0-15,0.2-26.2,0.7-33.6l-0.3-0.6l-1.3,0.5c-1.7-1.1-3.9-1.8-6.7-2.1c-0.8-0.1-3.2-0.1-7.2,0
				c-3.5,0.1-7.3,1-11.4,2.7c-2,0.8-3.4,1.3-4.4,1.6c-2.2,1-3.5,1.7-4,2.2c-0.4,0.4-1.1,1.8-2,4.1c-1.4,3.7-2.1,8.3-2.1,14
				c0,4.2,0.4,8.5,1.3,12.7c1.3,6.1,3.3,9.6,5.9,10.5c0.9,0.3,2,0.5,3.2,0.5c3.2,0.1,6-0.7,8.4-2.3c2.3-1.9,4.5-3.8,6.8-5.6
				c-0.4,3.2-0.6,4.9-0.6,5.1c0,1.9,1.7,2.8,5.1,2.8c1,0,2.8-0.3,5.5-1c2.7-0.7,4.5-1.2,5.5-1.8c0.4,0,0.7-0.1,0.7-0.4
				C380.1,306.4,379.6,306.1,378.6,305.7z M364.3,280.7c-0.1,3.6-0.6,8.5-1.5,14.7c-0.3,1.4-1,3.1-2.4,5c-1.5,2.1-2.9,3.2-4.2,3.2
				c-1.4,0-2.6-1.5-3.6-4.4c-0.8-2.1-1.2-4.2-1.4-6.2c-0.1-0.7-0.1-2.7-0.1-5.9c0-4.7,1.5-11.1,4.6-19c0.6-1.1,1.2-1.7,1.8-1.7
				c3,0,5,1.8,6,5.3C364.1,273.7,364.4,276.6,364.3,280.7z M427.2,305.7c-1.6-0.6-2.4-3.1-2.4-7.4c0-0.5,0.1-1.3,0.2-2.5
				c0.1-1.1,0.2-2,0.2-2.6c0-1.1-0.1-3.2-0.2-6.1c-0.1-2.5-0.2-4.6-0.2-6.1c0-1.2,0.1-2.9,0.2-5.2c0.1-2.2,0.2-3.9,0.2-4.9
				c0.1-3.4-0.5-5.8-1.8-7.1c-1.2-1.3-3.6-2-7-2c-2,0-3.8,0.7-5.6,2.2c-0.1,0.1-1.5,1.5-4.3,4.4c-1.8,2.2-3.2,3.9-4,5
				c0-1,0-2.4,0.1-4.2c0.1-1.9,0.1-3.2,0.1-4.1c0-2.6-1.7-3.9-5-3.8c-1.3,0-3.5,0.6-6.6,1.9c-3.1,1.2-4.8,2.2-5.3,3
				c1.8,1.6,2.8,3.1,3,4.6c0.3,2.6,0.5,8.7,0.5,18.3c0,1.8-0.1,4.8-0.2,8.8c-0.2,4-0.2,7.1-0.2,9.2c0,1.9,1.8,2.8,5.3,2.8
				c0.9,0,2.7-0.3,5.4-1c2.5-0.6,4.3-1.1,5.4-1.6c0.6-0.3,0.9-0.4,0.9-0.6c-0.4-0.5-0.9-0.8-1.3-1c-1.6-0.6-2.5-3.1-2.5-7.6
				c0-0.6,0-1.4,0.1-2.5c0.1-1.1,0.1-1.9,0.1-2.4c0-1.5,0-3.7,0.1-6.6V280c1.1-1.8,2.2-3.8,3.4-5.7c1.2-2,2.4-3.6,3.7-4.9
				c0.8,0.1,1.4,1.2,2,3.4c0.4,1.8,0.7,3.2,0.7,4.4c0,3.4-0.1,8.3-0.2,15c-0.2,6.6-0.2,11.6-0.2,14.9c0,1.9,1.7,2.8,5.1,2.8
				c1,0,2.8-0.3,5.5-1c2.4-0.6,4.2-1.1,5.4-1.6c0.3-0.2,0.6-0.3,0.8-0.5C428.5,306.4,428.1,306.1,427.2,305.7z M474.2,263.1
				l-1.3,0.5c-2-1.3-5.1-2-9.4-2c-4,0-6.8,0.4-8.4,1.3c-3.1,0.7-5.6,1.1-7.6,1.2c-2,0.8-3.5,1.4-4.5,1.8c-2.3,1-3.6,1.7-4,2
				c-0.5,0.5-1.2,1.9-2.1,4.2c-1.4,3.7-2.1,8.4-2.1,14.1c0,4.3,0.4,8.6,1.3,12.9c1.3,6.1,3.3,9.6,5.9,10.5c0.8,0.3,1.8,0.4,3.2,0.4
				c3.2,0.1,6-0.7,8.4-2.4c2.3-1.9,4.5-3.8,6.8-5.7c-0.1,1.1,0,2.6,0.1,4.4c0.1,2.1,0.2,3.7,0.2,4.5c0,7.8-1.4,11.7-4.1,11.7
				c-1.6,0-4.1-0.7-7.5-2c-3.3-1.3-5.9-2-7.7-2c-1.8,0-3.1,0.6-4.1,1.8c-1,1.2-1.5,2.6-1.5,4.4c0,1.3,1.5,2.3,4.5,3
				c2.2,0.6,4.2,0.9,5.9,0.9c1.4,0,3.5,0.2,6.2,0.7c2.7,0.5,4.8,0.7,6.3,0.7c2.2,0,4.3-0.4,6.2-1.1c4.5-1.8,7.1-3.1,7.8-3.8
				c1.1-1.3,1.6-4.2,1.6-8.7c0-3.2-0.1-7.9-0.4-14.2c-0.3-6.3-0.4-11-0.4-14.2c0-9.9,0.3-18,0.8-24.3L474.2,263.1z M460.9,280.7
				c-0.1,3.6-0.6,8.5-1.5,14.7c-0.3,1.4-1,3.1-2.3,5c-1.5,2.2-2.9,3.2-4.1,3.2c-1.6,0-2.9-1.8-3.9-5.3c-0.8-2.7-1.1-5.2-1.1-7.3
				c0-3,0.6-7.6,1.8-13.6c1.4-7.3,3-11,4.7-11c2.9,0,4.9,1.8,5.9,5.3C460.7,273.7,460.9,276.6,460.9,280.7z M569,305.7
				c-1.6-0.6-2.5-3.1-2.5-7.6c0-0.6,0-1.4,0.1-2.5c0.1-1.1,0.1-1.9,0.1-2.4c0-2.6,0-6.4,0.1-11.5c0.1-5.1,0.1-8.9,0.1-11.4
				c0-2.5-0.7-4.6-2.1-6.3c-1.4-1.6-3.4-2.5-5.8-2.5c-6.1,0-11.2,4.1-15.2,12.4v-3.1c0-3.1-0.5-5.3-1.6-6.6
				c-1.3-1.6-3.7-2.4-7.3-2.4c-1.9,0-3.7,0.7-5.5,2.2l-4.2,4.4c-1.8,2.2-3.1,3.9-4,5c0-1,0-2.4,0.1-4.2c0.1-1.9,0.1-3.2,0.1-4.1
				c0-2.6-1.7-3.9-5-3.8c-1.3,0-3.5,0.6-6.6,1.9c-3.1,1.2-4.8,2.2-5.3,3c0,0.1,0.5,0.5,1.4,1.3c0.9,0.8,1.5,1.9,1.7,3.4
				c0.3,2.5,0.5,8.6,0.5,18.2c0,1.8-0.1,4.8-0.2,8.8c-0.2,4-0.2,7.1-0.2,9.2c0,1.9,1.8,2.8,5.3,2.8c0.9,0,2.7-0.3,5.4-1
				c2.5-0.6,4.3-1.2,5.4-1.6c0.5-0.1,0.8-0.3,0.8-0.5c0-0.3-0.4-0.7-1.2-1c-1.6-0.6-2.5-3.1-2.5-7.6c0-0.6,0-1.4,0.1-2.5
				c0.1-1.1,0.1-1.9,0.1-2.4c0-1.5,0-3.7,0.1-6.6V280c1.1-1.8,2.2-3.8,3.4-5.7c1.2-2,2.4-3.6,3.7-4.9c0.8,0.1,1.4,1.2,2,3.4
				c0.4,1.8,0.7,3.2,0.7,4.4c0,3.4-0.1,8.3-0.3,15c-0.2,6.6-0.3,11.6-0.3,14.9c0,1.9,1.7,2.8,5.1,2.8c1,0,2.8-0.3,5.5-1
				c2.5-0.6,4.3-1.1,5.4-1.6c0.5-0.1,0.8-0.3,0.8-0.5c0-0.3-0.4-0.7-1.2-1c-1.5-0.6-2.2-3.1-2.2-7.5c0-0.5,0-1.3,0.1-2.4
				c0.1-1.1,0.1-1.9,0.1-2.5c-0.1-6.2,0.2-10.6,0.8-13c0.9-3.5,3.1-7.2,6.6-11c1.2,1.8,2,3.2,2.2,4.4c0.2,0.7,0.3,2.4,0.3,5
				c0,3.4-0.1,8.1-0.2,14c-0.2,6.7-0.2,11.4-0.2,14.1c0,2,1.6,2.9,4.9,2.9c1.1,0,2.9-0.3,5.6-1c2.4-0.6,4.2-1.1,5.4-1.6
				c0.5-0.1,0.8-0.3,0.8-0.5C570.3,306.4,569.8,306.1,569,305.7z M605.3,286c1.2,0,2.6-0.5,4.1-1.5c2.7-1.8,4.1-3.7,4.1-5.5
				c-0.1-11.7-4.6-17.6-13.4-17.6c-3.2,0-6.4,0.3-9.5,0.9c-4.4,0.8-7.2,1.9-8.4,3.5c-0.9,1.5-1.5,2.6-1.7,3.4
				c-2.9,5.8-4.4,12.6-4.4,20.2c0,13.5,5.7,20.2,17,20.2c6.6,0,12.7-2.9,18-8.8c1.5-1.6,2.3-2.4,2.3-2.3c0-0.7-0.9-1.3-2.7-1.7
				c-1.3-0.3-2.4-0.5-3.5-0.5c-0.9,0-1.6,0.3-2.2,0.9c-2.2,2.2-3.6,3.4-4.2,3.8c-1.6,1.2-3.4,1.8-5.3,1.8c-4.1,0-6.1-5-6.1-15.1V286
				H605.3z M590.1,277.2c0.2-2.3,0.4-4.6,0.7-6.9c0.6-2.6,2.2-3.8,4.6-3.8c3.9,0,5.8,3.4,5.8,10.3c0,1.4-1.9,2.1-5.7,2H590
				L590.1,277.2z M683.7,305.7c-1.6-0.6-2.5-3.1-2.5-7.6c0-0.6,0-1.4,0.1-2.5c0.1-1.1,0.1-1.9,0.1-2.4c0-2.6,0-6.4,0.1-11.5
				c0.1-5.1,0.1-8.9,0.1-11.4c0-2.5-0.7-4.6-2.1-6.3c-1.4-1.6-3.4-2.5-5.8-2.5c-6.1,0-11.2,4.1-15.2,12.4v-3.1
				c0-3.1-0.5-5.3-1.6-6.6c-1.3-1.6-3.7-2.4-7.3-2.4c-1.9,0-3.7,0.7-5.5,2.2l-4.2,4.4c-1.8,2.2-3.1,3.9-4,5c0-1,0-2.4,0.1-4.2
				c0.1-1.9,0.1-3.2,0.1-4.1c0-2.6-1.7-3.9-5-3.8c-1.3,0-3.5,0.6-6.6,1.9c-3.1,1.2-4.8,2.2-5.3,3c0,0.1,0.5,0.5,1.4,1.3
				c0.9,0.8,1.5,1.9,1.7,3.4c0.3,2.5,0.5,8.6,0.5,18.2c0,1.8-0.1,4.8-0.2,8.8c-0.2,4-0.2,7.1-0.2,9.2c0,1.9,1.8,2.8,5.3,2.8
				c0.9,0,2.7-0.3,5.4-1c2.5-0.6,4.3-1.2,5.4-1.6c0.5-0.1,0.8-0.3,0.8-0.5c0-0.3-0.4-0.7-1.2-1c-1.6-0.6-2.5-3.1-2.5-7.6
				c0-0.6,0-1.4,0.1-2.5c0.1-1.1,0.1-1.9,0.1-2.4c0-1.5,0-3.7,0.1-6.6V280c1.1-1.8,2.2-3.8,3.4-5.7c1.2-2,2.4-3.6,3.7-4.9
				c0.8,0.1,1.4,1.2,2,3.4c0.4,1.8,0.7,3.2,0.7,4.4c0,3.4-0.1,8.3-0.3,15c-0.2,6.6-0.3,11.6-0.3,14.9c0,1.9,1.7,2.8,5.1,2.8
				c1,0,2.8-0.3,5.5-1c2.5-0.6,4.3-1.1,5.4-1.6c0.5-0.1,0.8-0.3,0.8-0.5c0-0.3-0.4-0.7-1.2-1c-1.5-0.6-2.2-3.1-2.2-7.5
				c0-0.5,0-1.3,0.1-2.4c0.1-1.1,0.1-1.9,0.1-2.5c-0.1-6.2,0.2-10.6,0.8-13c0.9-3.5,3.1-7.2,6.6-11c1.2,1.8,2,3.2,2.2,4.4
				c0.2,0.7,0.3,2.4,0.3,5c0,3.4-0.1,8.1-0.2,14c-0.2,6.7-0.2,11.4-0.2,14.1c0,2,1.6,2.9,4.9,2.9c1.1,0,2.9-0.3,5.6-1
				c2.4-0.6,4.2-1.1,5.4-1.6c0.5-0.1,0.8-0.3,0.8-0.5C684.9,306.4,684.5,306.1,683.7,305.7z M730.5,268.6c-2.7-4.3-6.2-6.5-10.7-6.5
				c-3.1,0-5.9,1.2-8.4,3.7c-2.3,2.2-3.9,4.9-4.7,8.1v-19.9c0-1,0.1-2.5,0.2-4.5c0.1-2,0.2-3.5,0.2-4.4c0-2.6-1.8-3.9-5.3-3.8
				c-1.3,0-3.4,0.6-6.5,1.9c-3.1,1.3-4.8,2.3-5.2,2.9c0.5,0.4,1,0.9,1.6,1.3c1,1,1.5,2.1,1.5,3.4c0,4.3,0.1,10.7,0.2,19.3
				c0.2,8.5,0.2,14.9,0.2,19.2c0,2-0.1,4.9-0.2,8.8c-0.1,3.9-0.2,6.9-0.2,8.8c0,1.9,1.7,2.9,5.2,2.9c0.8,0,2.1-0.1,3.8-0.4
				c2-0.4,3.1-0.8,3.1-1.2c2.8,1.1,5.3,1.6,7.3,1.6c6.8,0,11.9-2.9,15.4-8.5c3-4.8,4.5-10.8,4.5-18c0-2-0.2-4.6-0.5-7.6
				C731.6,272,731.1,269.6,730.5,268.6z M714.1,303.2c-0.1,0-0.2,0-0.5,0.1h-0.4c-2.7-0.1-4.9-1.5-6.6-4.2c-0.1-1.5,0-3.8,0.3-6.8
				c0.3-3,0.4-5.2,0.4-6.5V277c2.7-5,5.1-7.5,7.3-7.5c1,0,1.8,0.7,2.3,2.2c0.7,0.8,1.3,2.6,1.8,5.3c0.3,2.2,0.5,4.1,0.5,5.7
				C719,293.5,717.3,300.4,714.1,303.2z M780.3,305.8c-1.6-0.8-2.4-3.3-2.4-7.7c0-0.5,0.1-1.3,0.2-2.4c0.1-1.1,0.2-1.9,0.2-2.5
				c0-3.4,0-8.1,0.1-14.2c0.1-6.7,0.2-11.3,0.2-14.1c0-2.4-1.7-3.6-5-3.6c-1.2,0-3.4,0.6-6.6,1.8c-3.2,1.2-5,2.2-5.5,3
				c0.4,0.4,0.9,0.8,1.3,1.2c0.9,0.8,1.5,1.9,1.8,3.3c0.4,2.5,0.6,5.8,0.6,9.6c-0.1,7.6-0.3,12.1-0.5,13.6c-2.5,4.4-4.8,6.6-6.9,6.6
				c-1.1,0-2-1.6-2.7-4.8c-0.6-2.4-0.9-4.4-0.9-6.1c0-0.8,0.1-1.9,0.2-3.3c0.1-1.5,0.2-2.5,0.2-3.2c0-5,0.1-8.9,0.2-11.7
				c0-0.4,0.1-1.6,0.2-3.5c0.1-1.4,0.2-2.5,0.2-3.4c0-1.8-0.6-2.7-1.7-2.7c-0.9,0-2.1,0.2-3.5,0.7c-1.8,0.5-3,0.8-3.6,0.9
				c-3.3,0.4-5.7,0.8-7.4,1c-0.9,0.3-1.4,0.7-1.4,1.1c0,0.6,0.2,1,0.7,1.1c0.4,0.2,0.9,0.3,1.3,0.5c0.6,0.3,1,1,1.2,1.9
				c0.1,0.4,0.2,1.2,0.2,2.3c0.1,5.3,0.2,8.1,0.2,8.2c0,1-0.1,3.5-0.3,7.3c-0.1,3-0.1,5.4,0,7.2c0,1.2,0.1,2.2,0.2,3
				c0.8,3.9,1.6,6.7,2.5,8.4c1.5,3,3.7,4.5,6.7,4.5c3.3,0,6.3-1.3,8.9-3.8c1.4-1.3,3.4-4,6-8c0,1-0.1,2.6-0.2,4.8
				c-0.2,2.2-0.2,3.8-0.2,4.9c0.1,1.8,0.9,2.8,2.5,2.8c1.5,0,4-0.4,7.4-1.1c3.7-0.9,6-1.7,6.9-2.4
				C781.1,306.2,780.7,305.8,780.3,305.8z M828,305.7c-1-0.4-1.5-0.8-1.5-1.2c0-0.8,0-2-0.1-3.6c-0.1-1.6-0.1-2.8-0.1-3.5
				c0-15,0.2-26.2,0.7-33.6l-0.3-0.6l-1.3,0.5c-1.7-1.1-3.9-1.8-6.7-2.1c-0.8-0.1-3.2-0.1-7.2,0c-3.5,0.1-7.3,1-11.4,2.7
				c-2,0.8-3.4,1.3-4.4,1.6c-2.2,1-3.5,1.7-4,2.2c-0.4,0.4-1.1,1.8-2,4.1c-1.4,3.7-2.1,8.3-2.1,14c0,4.2,0.4,8.5,1.3,12.7
				c1.3,6.1,3.3,9.6,5.9,10.5c0.9,0.3,2,0.5,3.2,0.5c3.2,0.1,6-0.7,8.4-2.3c2.3-1.9,4.5-3.8,6.8-5.6c-0.4,3.2-0.6,4.9-0.6,5.1
				c0,1.9,1.7,2.8,5.1,2.8c1,0,2.8-0.3,5.5-1c2.7-0.7,4.5-1.2,5.5-1.8c0.4,0,0.7-0.1,0.7-0.4C829.4,306.4,829,306.1,828,305.7z
				 M813.6,280.7c-0.1,3.6-0.6,8.5-1.5,14.7c-0.3,1.4-1,3.1-2.4,5c-1.5,2.1-2.9,3.2-4.2,3.2c-1.4,0-2.6-1.5-3.6-4.4
				c-0.8-2.1-1.2-4.2-1.4-6.2c-0.1-0.7-0.1-2.7-0.1-5.9c0-4.7,1.5-11.1,4.6-19c0.6-1.1,1.2-1.7,1.8-1.7c3,0,5,1.8,6,5.3
				C813.4,273.7,813.7,276.6,813.6,280.7z M852.6,284.6v-14.2h4.5c1.5,0,2.3-0.1,2.7-0.3c0.7-0.3,1-1.1,1-2.3c-0.1-2-0.7-3-1.9-3
				c-3.8,0-5.9,0-6.3-0.1c-0.1,0.6-0.1-1.9-0.1-7.3c0-0.4,0-1,0.1-1.8c0.1-0.8,0.1-1.4,0.1-1.9c-0.1-1.1-1.4-1.7-3.9-1.6
				c-2.7,0.1-4.2,0.7-4.6,1.8c-1.1,2.9-1.8,4.6-2.1,5.1c-0.4,1.1-0.8,2.2-1.1,3.2c-0.6,1.7-1.1,2.6-1.4,2.6c-0.7,0-1.6-0.1-2.6-0.2
				c-1-0.1-1.8-0.2-2.1-0.2c-1.8,0-2.7,1.6-2.7,4.9c0,0.6,0.4,1,1.3,1h6c0.1,4.5,0.1,7.9,0,10.3c0.1,7.2,0.3,12.6,0.4,16.2
				c0.1,5.2,0.3,8.2,0.6,9c0.8,2.4,3.2,3.6,7.2,3.7c0.8,0,4.7-1.3,11.6-3.8c0.8-0.3,1.2-0.6,1.2-0.8c0-0.4-0.1-1.1-0.3-1.9
				c-0.2-0.8-0.3-1.5-0.3-1.9c0-0.2,0-0.5,0.1-1v-1.1c-1.5,1.1-2.8,1.6-4,1.6c-2.8,0-4.1-2.4-4.1-7.3c0-1,0.1-2.5,0.3-4.4
				C852.5,287.1,852.6,285.6,852.6,284.6z M928.6,305.7c-1.6-0.6-2.5-3.1-2.5-7.6c0-0.6,0-1.4,0.1-2.5c0.1-1.1,0.1-1.9,0.1-2.4
				c0-2.6,0-6.4,0.1-11.5c0.1-5.1,0.1-8.9,0.1-11.4c0-2.5-0.7-4.6-2.1-6.3c-1.4-1.6-3.4-2.5-5.8-2.5c-6.1,0-11.2,4.1-15.2,12.4v-3.1
				c0-3.1-0.5-5.3-1.6-6.6c-1.3-1.6-3.7-2.4-7.3-2.4c-1.9,0-3.7,0.7-5.5,2.2l-4.2,4.4c-1.8,2.2-3.1,3.9-4,5c0-1,0-2.4,0.1-4.2
				c0.1-1.9,0.1-3.2,0.1-4.1c0-2.6-1.7-3.9-5-3.8c-1.3,0-3.5,0.6-6.6,1.9c-3.1,1.2-4.8,2.2-5.3,3c0,0.1,0.5,0.5,1.4,1.3
				c0.9,0.8,1.5,1.9,1.7,3.4c0.3,2.5,0.5,8.6,0.5,18.2c0,1.8-0.1,4.8-0.2,8.8c-0.2,4-0.2,7.1-0.2,9.2c0,1.9,1.8,2.8,5.3,2.8
				c0.9,0,2.7-0.3,5.4-1c2.5-0.6,4.3-1.2,5.4-1.6c0.5-0.1,0.8-0.3,0.8-0.5c0-0.3-0.4-0.7-1.2-1c-1.6-0.6-2.5-3.1-2.5-7.6
				c0-0.6,0-1.4,0.1-2.5c0.1-1.1,0.1-1.9,0.1-2.4c0-1.5,0-3.7,0.1-6.6V280c1.1-1.8,2.2-3.8,3.4-5.7c1.2-2,2.4-3.6,3.7-4.9
				c0.8,0.1,1.4,1.2,2,3.4c0.4,1.8,0.7,3.2,0.7,4.4c0,3.4-0.1,8.3-0.3,15c-0.2,6.6-0.3,11.6-0.3,14.9c0,1.9,1.7,2.8,5.1,2.8
				c1,0,2.8-0.3,5.5-1c2.5-0.6,4.3-1.1,5.4-1.6c0.5-0.1,0.8-0.3,0.8-0.5c0-0.3-0.4-0.7-1.2-1c-1.5-0.6-2.2-3.1-2.2-7.5
				c0-0.5,0-1.3,0.1-2.4c0.1-1.1,0.1-1.9,0.1-2.5c-0.1-6.2,0.2-10.6,0.8-13c0.9-3.5,3.1-7.2,6.6-11c1.2,1.8,2,3.2,2.2,4.4
				c0.2,0.7,0.3,2.4,0.3,5c0,3.4-0.1,8.1-0.2,14c-0.2,6.7-0.2,11.4-0.2,14.1c0,2,1.6,2.9,4.9,2.9c1.1,0,2.9-0.3,5.6-1
				c2.4-0.6,4.2-1.1,5.4-1.6c0.5-0.1,0.8-0.3,0.8-0.5C929.8,306.4,929.4,306.1,928.6,305.7z M977.3,305.8c-1.6-0.8-2.4-3.3-2.4-7.7
				c0-0.5,0.1-1.3,0.2-2.4c0.1-1.1,0.2-1.9,0.2-2.5c0-3.4,0-8.1,0.1-14.2c0.1-6.7,0.2-11.3,0.2-14.1c0-2.4-1.7-3.6-5-3.6
				c-1.2,0-3.4,0.6-6.6,1.8c-3.2,1.2-5,2.2-5.5,3c0.4,0.4,0.9,0.8,1.3,1.2c0.9,0.8,1.5,1.9,1.8,3.3c0.4,2.5,0.6,5.8,0.6,9.6
				c-0.1,7.6-0.3,12.1-0.5,13.6c-2.5,4.4-4.8,6.6-6.9,6.6c-1.1,0-2-1.6-2.7-4.8c-0.6-2.4-0.9-4.4-0.9-6.1c0-0.8,0.1-1.9,0.2-3.3
				c0.1-1.5,0.2-2.5,0.2-3.2c0-5,0.1-8.9,0.2-11.7c0-0.4,0.1-1.6,0.2-3.5c0.1-1.4,0.2-2.5,0.2-3.4c0-1.8-0.6-2.7-1.7-2.7
				c-0.9,0-2.1,0.2-3.5,0.7c-1.8,0.5-3,0.8-3.6,0.9c-3.3,0.4-5.7,0.8-7.4,1c-0.9,0.3-1.4,0.7-1.4,1.1c0,0.6,0.2,1,0.7,1.1
				c0.4,0.2,0.9,0.3,1.3,0.5c0.6,0.3,1,1,1.2,1.9c0.1,0.4,0.2,1.2,0.2,2.3c0.1,5.3,0.2,8.1,0.2,8.2c0,1-0.1,3.5-0.3,7.3
				c-0.1,3-0.1,5.4,0,7.2c0,1.2,0.1,2.2,0.2,3c0.8,3.9,1.6,6.7,2.5,8.4c1.5,3,3.7,4.5,6.7,4.5c3.3,0,6.3-1.3,8.9-3.8
				c1.4-1.3,3.4-4,6-8c0,1-0.1,2.6-0.2,4.8c-0.2,2.2-0.2,3.8-0.2,4.9c0.1,1.8,0.9,2.8,2.5,2.8c1.5,0,4-0.4,7.4-1.1
				c3.7-0.9,6-1.7,6.9-2.4C978.1,306.2,977.6,305.8,977.3,305.8z M1011.2,253.1c0.4,0.1,1.6,0.2,3.5,0.2c2.5,0,4.4-0.5,5.7-1.4
				c0.9-1.3,1.5-2.4,1.7-3.1c0.6-1.5,0.9-2.4,0.9-2.8c0-0.4-0.7-1.2-2.2-2.4c-1.5-1.2-2.4-1.8-2.9-1.8h-1.1c-3.6,0-6.3,1.5-8,4.4
				c-0.2,0.3-0.3,0.6-0.3,0.9c0,0.9,0.3,2.1,0.9,3.5C1009.9,251.9,1010.5,252.7,1011.2,253.1z M1018.8,261.4c-1.3,0-3.5,0.6-6.6,1.8
				c-3.1,1.2-4.8,2.2-5.3,2.9c0,0.1,0.4,0.5,1.3,1.3c0.9,0.8,1.4,1.9,1.6,3.4c0.4,2.7,0.6,8.8,0.6,18.1c0,1.9-0.1,4.9-0.2,8.9
				c-0.2,4-0.2,7.1-0.2,9.2c0,1.1,0.1,2.9,0.2,5.2c0.2,2.3,0.2,4.1,0.2,5.3c0,1.8-0.2,3.1-0.7,3.8c-0.6,0.9-1.9,1.3-3.7,1.3
				c-4.4-0.1-6.7-1.4-6.9-3.9c-0.2-2.1-0.5-3.1-0.9-3.1c-1.2,0-3.3,1.6-6.3,4.8c-0.9,1-1.4,2.5-1.4,4.5c0,1.2,1.5,2.2,4.5,2.9
				c2.2,0.6,4.2,0.9,5.9,0.9c6,0,11-2,15.2-5.9c2-1.9,3.4-4.1,4.4-6.7c0.4-1,1.1-3.6,2.2-7.8c0.7-2.8,1-6.2,1-10.2v-23.5
				c0-1,0-2.6,0.1-4.8c0.1-2.2,0.1-3.8,0.1-4.8C1023.8,262.7,1022.1,261.4,1018.8,261.4z M1073.1,305.7c-1-0.4-1.5-0.8-1.5-1.2
				c0-0.8,0-2-0.1-3.6c-0.1-1.6-0.1-2.8-0.1-3.5c0-15,0.2-26.2,0.7-33.6l-0.3-0.6l-1.3,0.5c-1.7-1.1-3.9-1.8-6.7-2.1
				c-0.8-0.1-3.2-0.1-7.2,0c-3.5,0.1-7.3,1-11.4,2.7c-2,0.8-3.4,1.3-4.4,1.6c-2.2,1-3.5,1.7-4,2.2c-0.4,0.4-1.1,1.8-2,4.1
				c-1.4,3.7-2.1,8.3-2.1,14c0,4.2,0.4,8.5,1.3,12.7c1.3,6.1,3.3,9.6,5.9,10.5c0.9,0.3,2,0.5,3.2,0.5c3.2,0.1,6-0.7,8.4-2.3
				c2.3-1.9,4.5-3.8,6.8-5.6c-0.4,3.2-0.6,4.9-0.6,5.1c0,1.9,1.7,2.8,5.1,2.8c1,0,2.8-0.3,5.5-1c2.7-0.7,4.5-1.2,5.5-1.8
				c0.4,0,0.7-0.1,0.7-0.4C1074.6,306.4,1074.1,306.1,1073.1,305.7z M1058.8,280.7c-0.1,3.6-0.6,8.5-1.5,14.7c-0.3,1.4-1,3.1-2.4,5
				c-1.5,2.1-2.9,3.2-4.2,3.2c-1.4,0-2.6-1.5-3.6-4.4c-0.8-2.1-1.2-4.2-1.4-6.2c-0.1-0.7-0.1-2.7-0.1-5.9c0-4.7,1.5-11.1,4.6-19
				c0.6-1.1,1.2-1.7,1.8-1.7c3,0,5,1.8,6,5.3C1058.6,273.7,1058.9,276.6,1058.8,280.7z M1097.8,284.6v-14.2h4.5
				c1.5,0,2.3-0.1,2.7-0.3c0.7-0.3,1-1.1,1-2.3c-0.1-2-0.7-3-1.9-3c-3.8,0-5.9,0-6.3-0.1c-0.1,0.6-0.1-1.9-0.1-7.3
				c0-0.4,0-1,0.1-1.8c0.1-0.8,0.1-1.4,0.1-1.9c-0.1-1.1-1.4-1.7-3.9-1.6c-2.7,0.1-4.2,0.7-4.6,1.8c-1.1,2.9-1.8,4.6-2.1,5.1
				c-0.4,1.1-0.8,2.2-1.1,3.2c-0.6,1.7-1.1,2.6-1.4,2.6c-0.7,0-1.6-0.1-2.6-0.2c-1-0.1-1.8-0.2-2.1-0.2c-1.8,0-2.7,1.6-2.7,4.9
				c0,0.6,0.4,1,1.3,1h6c0.1,4.5,0.1,7.9,0,10.3c0.1,7.2,0.3,12.6,0.4,16.2c0.1,5.2,0.3,8.2,0.6,9c0.8,2.4,3.2,3.6,7.2,3.7
				c0.8,0,4.7-1.3,11.6-3.8c0.8-0.3,1.2-0.6,1.2-0.8c0-0.4-0.1-1.1-0.3-1.9c-0.2-0.8-0.3-1.5-0.3-1.9c0-0.2,0-0.5,0.1-1v-1.1
				c-1.5,1.1-2.8,1.6-4,1.6c-2.8,0-4.1-2.4-4.1-7.3c0-1,0.1-2.5,0.3-4.4C1097.7,287.1,1097.8,285.6,1097.8,284.6z M1151.3,305.8
				c-1.6-0.8-2.4-3.3-2.4-7.7c0-0.5,0.1-1.3,0.2-2.4c0.1-1.1,0.2-1.9,0.2-2.5c0-3.4,0-8.1,0.1-14.2c0.1-6.7,0.2-11.3,0.2-14.1
				c0-2.4-1.7-3.6-5-3.6c-1.2,0-3.4,0.6-6.6,1.8c-3.2,1.2-5,2.2-5.5,3c0.4,0.4,0.9,0.8,1.3,1.2c0.9,0.8,1.5,1.9,1.8,3.3
				c0.4,2.5,0.6,5.8,0.6,9.6c-0.1,7.6-0.3,12.1-0.5,13.6c-2.5,4.4-4.8,6.6-6.9,6.6c-1.1,0-2-1.6-2.7-4.8c-0.6-2.4-0.9-4.4-0.9-6.1
				c0-0.8,0.1-1.9,0.2-3.3c0.1-1.5,0.2-2.5,0.2-3.2c0-5,0.1-8.9,0.2-11.7c0-0.4,0.1-1.6,0.2-3.5c0.1-1.4,0.2-2.5,0.2-3.4
				c0-1.8-0.6-2.7-1.7-2.7c-0.9,0-2.1,0.2-3.5,0.7c-1.8,0.5-3,0.8-3.6,0.9c-3.3,0.4-5.7,0.8-7.4,1c-0.9,0.3-1.4,0.7-1.4,1.1
				c0,0.6,0.2,1,0.7,1.1c0.4,0.2,0.9,0.3,1.3,0.5c0.6,0.3,1,1,1.2,1.9c0.1,0.4,0.2,1.2,0.2,2.3c0.1,5.3,0.2,8.1,0.2,8.2
				c0,1-0.1,3.5-0.3,7.3c-0.1,3-0.1,5.4,0,7.2c0,1.2,0.1,2.2,0.2,3c0.8,3.9,1.6,6.7,2.5,8.4c1.5,3,3.7,4.5,6.7,4.5
				c3.3,0,6.3-1.3,8.9-3.8c1.4-1.3,3.4-4,6-8c0,1-0.1,2.6-0.2,4.8c-0.2,2.2-0.2,3.8-0.2,4.9c0.1,1.8,0.9,2.8,2.5,2.8
				c1.5,0,4-0.4,7.4-1.1c3.7-0.9,6-1.7,6.9-2.4C1152.1,306.2,1151.7,305.8,1151.3,305.8z M1199.1,305.7c-1.6-0.6-2.4-3.1-2.4-7.5
				c0-0.5,0.1-1.3,0.2-2.4c0.1-1.1,0.2-1.9,0.2-2.5c0-1.1-0.1-3.2-0.2-6.1c-0.1-2.5-0.2-4.6-0.2-6.1c0-1.2,0.1-2.9,0.2-5.2
				c0.1-2.2,0.2-3.9,0.2-4.9c0.1-3.4-0.5-5.8-1.8-7.1c-1.2-1.3-3.6-2-7-2c-2,0-3.9,0.7-5.6,2.2c-0.1,0.1-1.5,1.5-4.3,4.4
				c-1.8,2.2-3.2,3.9-4,5c0.3-2.2,0.4-3.8,0.4-4.8c0-0.6-0.1-1.6-0.2-2.8c-0.1-1.2-0.2-2.1-0.2-2.7v-8.9c0-1,0.1-2.5,0.2-4.5
				c0.1-2,0.2-3.5,0.2-4.4c0-2.5-1.8-3.8-5.4-3.8c-1.2,0-3.3,0.6-6.4,1.9c-3.1,1.3-4.8,2.2-5.2,2.9c0-0.1,0.5,0.4,1.5,1.3
				c1,1,1.5,2.1,1.5,3.4c0,4.5,0.1,11.2,0.3,20.1c0.2,8.9,0.3,15.6,0.3,20.1c0,1.8-0.1,4.4-0.2,7.9c-0.1,3.5-0.2,6.1-0.2,7.8
				c0,1.9,1.7,2.8,5.2,2.8c0.9,0,2.7-0.3,5.4-1c2.5-0.6,4.3-1.1,5.4-1.6c0.6-0.3,0.9-0.4,0.9-0.6c-0.4-0.5-0.9-0.8-1.3-1
				c-1.6-0.6-2.5-3.1-2.5-7.5c0-0.6,0-1.4,0.1-2.5c0.1-1.1,0.1-1.9,0.1-2.4c0-1.5,0-3.7,0.1-6.6V280c1.1-1.8,2.2-3.8,3.4-5.7
				c1.2-2,2.4-3.6,3.8-4.9c0.8,0.1,1.4,1.2,2,3.4c0.4,1.8,0.7,3.2,0.7,4.4c0,3.4-0.1,8.3-0.2,15c-0.2,6.6-0.2,11.6-0.2,14.9
				c0,1.9,1.7,2.8,5.1,2.8c1,0,2.8-0.3,5.5-1c2.4-0.6,4.2-1.1,5.4-1.6c0.3-0.2,0.6-0.3,0.8-0.5
				C1200.4,306.4,1200,306.1,1199.1,305.7z M1251.4,276c1.8-0.1,4.2-0.6,7.2-1.5c3.7-1.1,5.5-2.3,5.5-3.4c0-6-3.2-9.1-9.6-9.1
				c0.3,0-1.5,0.2-5.4,0.7c-3.7,0.3-6.4,0.4-8.3,0.5c-2.7,0.4-4.8,1.7-6.2,4c-4.1,6.7-6.2,14.6-6.2,23.7c0,5.8,1.3,10.4,4,13.7
				c3,3.5,7.3,5.3,12.9,5.3c1.8,0,5.4-0.9,10.8-2.7c1.3-0.4,3.2-2.3,5.7-5.5c1.4-1.8,2.1-2.9,2.1-3.3c0-0.3-0.5-0.9-1.4-1.7
				c-0.9-0.8-1.6-1.2-2-1.2c-0.4-0.1-0.7,0.1-1,0.4c-1.6,2.2-2.5,3.4-2.6,3.4c-0.9,0.7-1.9,1.4-2.9,2.2c-1.4,1-2.4,1.5-3.1,1.5
				c-3.3,0-5.7-2.8-7.2-8.5c-1-3.7-1.5-7.9-1.5-12.6c0-4.9,1.1-8.9,3.2-12.1c1-1.5,1.7-2.3,2.1-2.3c0.5,0,1.4,0.9,2.6,2.8
				c1.2,1.9,1.8,3.2,1.8,3.8l-1.1,1.7C1251.1,275.9,1251.2,276,1251.4,276z M1286.5,305.7c-1.6-0.6-2.5-3.1-2.5-7.6
				c0-0.6,0-1.4,0.1-2.5c0.1-1.1,0.1-1.9,0.1-2.4c0-2.1,0-5.2,0.1-9.3v-9.2c0-1.1,0.1-2.7,0.2-4.8c0.1-2.1,0.2-3.7,0.2-4.7
				c0-2.7-1.7-4-5-3.9c-1.3,0-3.5,0.6-6.6,1.9c-3.1,1.2-4.9,2.2-5.3,3c1.8,1.6,2.8,3.1,3,4.6c0.3,2.7,0.5,8.8,0.5,18.3
				c0,1.8-0.1,4.8-0.2,8.8c-0.2,4-0.2,7.1-0.2,9.2c0,1.9,1.8,2.8,5.3,2.8c1,0,2.8-0.3,5.4-1c2.6-0.7,4.5-1.2,5.5-1.8
				c0.4-0.1,0.6-0.2,0.6-0.4C1287.7,306.4,1287.3,306.1,1286.5,305.7z M1273.5,253.1c0.4,0.1,1.6,0.2,3.5,0.2c2.5,0,4.4-0.5,5.6-1.4
				c0.9-1.3,1.4-2.4,1.7-3.1c0.6-1.5,0.9-2.4,0.9-2.8c0-0.4-0.7-1.2-2.2-2.4c-1.4-1.2-2.4-1.8-2.9-1.8h-1.1c-3.6,0-6.2,1.5-8,4.4
				c-0.2,0.3-0.3,0.6-0.3,0.9c0,0.9,0.3,2.1,0.9,3.5C1272.2,251.9,1272.8,252.7,1273.5,253.1z M1334.2,305.7
				c-1.6-0.6-2.4-3.1-2.4-7.4c0-0.5,0.1-1.3,0.2-2.5c0.1-1.1,0.2-2,0.2-2.6c0-1.1-0.1-3.2-0.2-6.1c-0.1-2.5-0.2-4.6-0.2-6.1
				c0-1.2,0.1-2.9,0.2-5.2c0.1-2.2,0.2-3.9,0.2-4.9c0.1-3.4-0.5-5.8-1.8-7.1c-1.2-1.3-3.6-2-7-2c-2,0-3.8,0.7-5.6,2.2
				c-0.1,0.1-1.5,1.5-4.3,4.4c-1.8,2.2-3.2,3.9-4,5c0-1,0-2.4,0.1-4.2c0.1-1.9,0.1-3.2,0.1-4.1c0-2.6-1.7-3.9-5-3.8
				c-1.3,0-3.5,0.6-6.6,1.9c-3.1,1.2-4.8,2.2-5.3,3c1.8,1.6,2.8,3.1,3,4.6c0.3,2.6,0.5,8.7,0.5,18.3c0,1.8-0.1,4.8-0.2,8.8
				c-0.2,4-0.2,7.1-0.2,9.2c0,1.9,1.8,2.8,5.3,2.8c0.9,0,2.7-0.3,5.4-1c2.5-0.6,4.3-1.1,5.4-1.6c0.6-0.3,0.9-0.4,0.9-0.6
				c-0.4-0.5-0.9-0.8-1.3-1c-1.6-0.6-2.5-3.1-2.5-7.6c0-0.6,0-1.4,0.1-2.5c0.1-1.1,0.1-1.9,0.1-2.4c0-1.5,0-3.7,0.1-6.6V280
				c1.1-1.8,2.2-3.8,3.4-5.7c1.2-2,2.4-3.6,3.7-4.9c0.8,0.1,1.4,1.2,2,3.4c0.4,1.8,0.7,3.2,0.7,4.4c0,3.4-0.1,8.3-0.2,15
				c-0.2,6.6-0.2,11.6-0.2,14.9c0,1.9,1.7,2.8,5.1,2.8c1,0,2.8-0.3,5.5-1c2.4-0.6,4.2-1.1,5.4-1.6c0.3-0.2,0.6-0.3,0.8-0.5
				C1335.5,306.4,1335.1,306.1,1334.2,305.7z M1358.4,284.6v-14.2h4.5c1.5,0,2.3-0.1,2.7-0.3c0.7-0.3,1-1.1,1-2.3
				c-0.1-2-0.7-3-1.9-3c-3.8,0-5.9,0-6.3-0.1c-0.1,0.6-0.1-1.9-0.1-7.3c0-0.4,0-1,0.1-1.8c0.1-0.8,0.1-1.4,0.1-1.9
				c-0.1-1.1-1.4-1.7-3.9-1.6c-2.7,0.1-4.2,0.7-4.6,1.8c-1.1,2.9-1.8,4.6-2.1,5.1c-0.4,1.1-0.8,2.2-1.1,3.2
				c-0.6,1.7-1.1,2.6-1.4,2.6c-0.7,0-1.6-0.1-2.6-0.2c-1-0.1-1.8-0.2-2.1-0.2c-1.8,0-2.7,1.6-2.7,4.9c0,0.6,0.4,1,1.3,1h6
				c0.1,4.5,0.1,7.9,0,10.3c0.1,7.2,0.3,12.6,0.4,16.2c0.1,5.2,0.3,8.2,0.6,9c0.8,2.4,3.2,3.6,7.2,3.7c0.8,0,4.7-1.3,11.6-3.8
				c0.8-0.3,1.2-0.6,1.2-0.8c0-0.4-0.1-1.1-0.3-1.9c-0.2-0.8-0.3-1.5-0.3-1.9c0-0.2,0-0.5,0.1-1v-1.1c-1.5,1.1-2.8,1.6-4,1.6
				c-2.8,0-4.1-2.4-4.1-7.3c0-1,0.1-2.5,0.3-4.4C1358.3,287.1,1358.4,285.6,1358.4,284.6z M1411.2,305.7c-1-0.4-1.5-0.8-1.5-1.2
				c0-0.8,0-2-0.1-3.6c-0.1-1.6-0.1-2.8-0.1-3.5c0-15,0.2-26.2,0.7-33.6l-0.3-0.6l-1.3,0.5c-1.7-1.1-3.9-1.8-6.7-2.1
				c-0.8-0.1-3.2-0.1-7.2,0c-3.5,0.1-7.3,1-11.4,2.7c-2,0.8-3.4,1.3-4.4,1.6c-2.2,1-3.5,1.7-4,2.2c-0.4,0.4-1.1,1.8-2,4.1
				c-1.4,3.7-2.1,8.3-2.1,14c0,4.2,0.4,8.5,1.3,12.7c1.3,6.1,3.3,9.6,5.9,10.5c0.9,0.3,2,0.5,3.2,0.5c3.2,0.1,6-0.7,8.4-2.3
				c2.3-1.9,4.5-3.8,6.8-5.6c-0.4,3.2-0.6,4.9-0.6,5.1c0,1.9,1.7,2.8,5.1,2.8c1,0,2.8-0.3,5.5-1c2.7-0.7,4.5-1.2,5.5-1.8
				c0.4,0,0.7-0.1,0.7-0.4C1412.7,306.4,1412.2,306.1,1411.2,305.7z M1396.9,280.7c-0.1,3.6-0.6,8.5-1.5,14.7c-0.3,1.4-1,3.1-2.4,5
				c-1.5,2.1-2.9,3.2-4.2,3.2c-1.4,0-2.6-1.5-3.6-4.4c-0.8-2.1-1.2-4.2-1.4-6.2c-0.1-0.7-0.1-2.7-0.1-5.9c0-4.7,1.5-11.1,4.6-19
				c0.6-1.1,1.2-1.7,1.8-1.7c3,0,5,1.8,6,5.3C1396.7,273.7,1396.9,276.6,1396.9,280.7z"/>
		</g>
	</g>
</g>
<g id="Heart_1_" class="st0">
	<g id="Heart">
		<g>
			<path class="st3" d="M1457,264.7c-9.1-21.1-34.8-16.2-35,8.3c-0.1,13.5,12.3,18.5,20.5,23.9c8,5.2,13.7,12.4,14.5,15.4
				c0.8-3,7.1-10.3,14.5-15.5c8.1-5.7,20.6-10.4,20.5-23.9C1491.8,248.3,1465.6,244.4,1457,264.7z"/>
		</g>
		<g>
			<path class="st4" d="M1457,264.7c-9.1-21.1-34.8-16.2-35,8.3c-0.1,13.5,12.3,18.5,20.5,23.9c8,5.2,13.7,12.4,14.5,15.4
				c0.8-3,7.1-10.3,14.5-15.5c8.1-5.7,20.6-10.4,20.5-23.9C1491.8,248.3,1465.6,244.4,1457,264.7z"/>
		</g>
	</g>
</g>
</svg>
